<svg xmlns="http://www.w3.org/2000/svg" width="167" height="66" viewBox="0 0 167 66" fill="none"><g clip-path="url(#clip0_620_421)"><path d="M141.854 25.9758H138.584V36.7326H141.854V25.9758Z" fill="black"></path><path d="M0 66C4.64653 63.8247 9.15815 61.4288 13.4485 58.66C15.1727 57.5492 16.8565 56.3758 18.4971 55.1289C18.8991 54.8267 19.2985 54.519 19.6952 54.2059C20.2024 53.8057 20.7043 53.4001 21.1981 52.9889C21.6919 52.5778 22.1857 52.1586 22.6687 51.7284C23.6428 50.8708 24.598 49.9833 25.5344 49.063C27.0049 47.6092 28.4809 46.1581 29.5792 44.353C30.1485 43.4165 30.0001 43.0925 28.9693 42.9509C27.0859 42.7004 25.2025 42.7794 23.3109 42.8801C21.5003 42.9809 19.6844 43.1061 17.8765 42.8012C17.6282 42.7576 17.2882 42.7249 17.2613 42.4255C17.2343 42.1069 17.577 42.0443 17.8117 41.9762C19.4253 41.4807 21.0389 40.9526 22.6687 40.5224C28.5133 38.9814 33.9747 36.4958 39.1124 33.2096C42.0347 31.3365 44.8275 29.2565 47.7093 27.3126C48.6753 26.6619 49.6305 25.9894 50.6694 25.4585C50.8771 25.3496 51.1308 25.1291 51.3709 25.3741C51.6515 25.6573 51.4033 25.9268 51.2819 26.1691C51.093 26.5503 50.8771 26.9151 50.6532 27.2745C48.2489 31.1024 45.7773 34.884 43.8075 38.9923C42.5258 41.6686 41.5544 44.4429 41.3169 47.4595C41.0741 50.5877 40.8852 53.7131 40.9877 56.8577C41.066 59.3216 40.8852 63.5524 41.1442 66H65.4158V0H0V66ZM48.454 11.6089C48.0331 10.6996 46.3412 8.11591 46.3655 7.88994C46.3844 7.66125 52.3963 8.75027 52.7255 8.70398C53.052 8.66042 53.8507 7.16302 54.0989 6.84448C54.3472 6.53139 55.3537 4.12466 56.0552 4.53304C56.7622 4.94415 57.6041 8.92996 57.8388 9.06881C58.0736 9.20221 61.7379 9.92641 61.8324 10.4274C61.9241 10.9256 61.0337 11.5164 60.4238 11.922C59.814 12.3304 57.936 13.3759 57.936 13.3759C58.2625 15.004 58.2625 17.6802 58.2625 17.6802C58.2625 17.6802 58.3569 18.3119 57.8874 18.222C57.4152 18.1294 54.2231 15.0012 54.2231 15.0012C54.2231 15.0012 53.8021 14.5956 53.4244 14.729C53.0493 14.8678 47.6553 16.681 46.9483 16.4551C46.2468 16.2264 46.29 15.5485 46.4788 15.2299C46.6677 14.9114 48.7293 12.9185 48.875 12.5101C49.0126 12.1044 48.4513 11.6062 48.4513 11.6062L48.454 11.6089ZM23.3136 25.9214C24.4118 25.4095 25.5155 24.9222 26.6272 24.4648C27.0346 24.296 27.1803 24.1272 27.0697 23.6453C26.9132 22.9429 26.8484 22.2214 26.7621 21.5C26.6488 20.6151 26.7756 20.4844 27.6579 20.5443C28.4459 20.6042 29.2419 20.6179 30.0217 20.7404C30.6234 20.8357 31.0417 20.6478 31.4518 20.2095C32.04 19.5778 32.6822 19.0007 33.3218 18.4262C33.8021 17.9879 34.2608 17.9443 34.6601 18.5868C35.0352 19.194 35.4777 19.7548 35.8393 20.3701C36.0848 20.7921 36.379 20.9391 36.835 20.8874C37.318 20.8357 37.8064 20.8465 38.2921 20.8547C38.7859 20.8629 39.0773 21.0725 38.9316 21.6606C38.8938 21.8158 38.9235 21.9982 38.8533 22.1343C37.998 23.8305 38.3029 25.611 38.3541 27.4188C38.4648 31.6414 35.189 34.2279 31.271 33.1634C30.3968 32.9265 29.5711 32.5835 28.8182 32.0689C28.4647 31.832 28.1868 31.8402 27.8279 31.9981C26.8619 32.4228 25.8905 32.8258 24.8679 33.079C24.1015 33.2668 23.8776 33.0572 23.9558 32.2268C24.053 31.263 24.4091 30.3646 24.6628 29.4444C24.8301 28.8318 24.7141 28.4207 24.2472 28.045C23.8641 27.7346 23.5079 27.3807 23.1625 27.0267C22.5473 26.3924 22.5527 26.2726 23.3109 25.9132L23.3136 25.9214Z" fill="#F7B32B"></path><path d="M72.7174 31.2576H76.8054V28.6956H72.7174V25.8397H78.1816V23.2015H69.4498V36.7353H72.7174V31.2576Z" fill="black"></path><path d="M81.8621 36.2126C82.6959 36.6618 83.6349 36.8878 84.6792 36.8878C85.7234 36.8878 86.6705 36.6618 87.5178 36.2126C88.3624 35.7634 89.0343 35.1181 89.5227 34.2741C90.0138 33.4329 90.2593 32.4582 90.2593 31.3556C90.2593 30.2529 90.0165 29.2755 89.5335 28.4343C89.0505 27.5903 88.3867 26.945 87.5475 26.4958C86.7083 26.0466 85.7639 25.8206 84.7169 25.8206C83.67 25.8206 82.731 26.0466 81.8891 26.4958C81.0499 26.945 80.3861 27.5903 79.9031 28.4343C79.4201 29.2755 79.1772 30.2502 79.1772 31.3556C79.1772 32.4609 79.4174 33.4492 79.895 34.285C80.3726 35.1236 81.031 35.7634 81.8621 36.2126ZM83.1303 29.3572C83.5512 28.9025 84.0801 28.6738 84.7142 28.6738C85.3483 28.6738 85.8637 28.9053 86.2928 29.3681C86.7191 29.8282 86.9323 30.4925 86.9323 31.3528C86.9323 32.2132 86.7164 32.8747 86.2739 33.3349C85.834 33.7977 85.3025 34.0291 84.6765 34.0291C84.0504 34.0291 83.5351 33.7977 83.1195 33.3349C82.704 32.8747 82.4962 32.2104 82.4962 31.3528C82.4962 30.4952 82.7067 29.8119 83.1276 29.3545L83.1303 29.3572Z" fill="black"></path><path d="M95.2648 30.8928C95.2648 30.1713 95.4509 29.6132 95.8179 29.2157C96.1903 28.8154 96.6868 28.6167 97.3074 28.6167C97.928 28.6167 98.4299 28.8154 98.7969 29.2157C99.1692 29.6159 99.3527 30.174 99.3527 30.8928V36.7326H102.602V30.449C102.602 29.0224 102.226 27.9007 101.482 27.0839C100.737 26.2699 99.7386 25.8588 98.492 25.8588C97.7904 25.8588 97.1617 25.9976 96.6031 26.2753C96.0392 26.5503 95.5939 26.9287 95.2648 27.4052V25.9786H91.9971V36.7353H95.2648V30.8955V30.8928Z" fill="black"></path><path d="M106.541 36.2044C107.256 36.6618 108.049 36.8905 108.926 36.8905C109.679 36.8905 110.338 36.7353 110.904 36.4277C111.474 36.12 111.911 35.7062 112.216 35.1944V36.7353H115.483V22.4692H112.216V27.4623C111.881 26.9614 111.43 26.5612 110.848 26.2671C110.27 25.9731 109.628 25.8234 108.926 25.8234C108.049 25.8234 107.253 26.0493 106.541 26.4985C105.826 26.9478 105.265 27.5903 104.849 28.4261C104.434 29.2592 104.226 30.2312 104.226 31.3365C104.226 32.4419 104.434 33.4165 104.849 34.2578C105.265 35.1018 105.826 35.7498 106.541 36.2044ZM108.233 29.4008C108.684 28.9325 109.237 28.6956 109.884 28.6956C110.532 28.6956 111.085 28.9325 111.538 29.409C111.992 29.8854 112.218 30.5334 112.218 31.3529C112.218 32.1723 111.992 32.8257 111.538 33.2995C111.085 33.7732 110.535 34.0128 109.884 34.0128C109.234 34.0128 108.684 33.7705 108.233 33.2886C107.78 32.8067 107.553 32.156 107.553 31.3311C107.553 30.5061 107.78 29.8663 108.233 29.3953V29.4008Z" fill="black"></path><path d="M119.515 36.2044C120.23 36.6618 121.018 36.8905 121.887 36.8905C122.639 36.8905 123.298 36.7353 123.864 36.4277C124.431 36.12 124.874 35.7144 125.192 35.2134V36.7353H128.46V25.9785H125.192V27.5005C124.887 26.9995 124.45 26.5938 123.883 26.2862C123.317 25.9786 122.658 25.8234 121.905 25.8234C121.026 25.8234 120.23 26.0493 119.515 26.4986C118.8 26.9478 118.238 27.5903 117.823 28.4261C117.41 29.2592 117.202 30.2312 117.202 31.3365C117.202 32.4419 117.41 33.4165 117.823 34.2578C118.238 35.1018 118.8 35.7498 119.515 36.2044ZM121.207 29.4008C121.66 28.9325 122.21 28.6957 122.861 28.6957C123.511 28.6957 124.061 28.9325 124.515 29.409C124.965 29.8854 125.192 30.5334 125.192 31.3529C125.192 32.1723 124.965 32.8258 124.515 33.2995C124.061 33.7759 123.508 34.0128 122.861 34.0128C122.213 34.0128 121.66 33.7705 121.207 33.2886C120.753 32.8067 120.527 32.156 120.527 31.3311C120.527 30.5061 120.753 29.8663 121.207 29.3953V29.4008Z" fill="black"></path><path d="M134.839 33.7269C134.687 33.5854 134.609 33.3567 134.609 33.0327V28.7147H136.752V25.9759H134.609V23.3513H131.341V25.9759H130.044V28.7147H131.341V32.9946C131.341 34.3177 131.671 35.2734 132.334 35.8587C132.998 36.4413 133.921 36.7354 135.106 36.7354H136.768V33.9393H135.602C135.246 33.9393 134.992 33.8685 134.839 33.7269Z" fill="black"></path><path d="M116.182 51.9979H112.915V65.8448H116.182V51.9979Z" fill="black"></path><path d="M126.042 55.589C125.241 55.1533 124.323 54.9355 123.29 54.9355C122.256 54.9355 121.296 55.1615 120.478 55.608C119.663 56.0572 119.029 56.7025 118.578 57.5356C118.125 58.3741 117.898 59.3461 117.898 60.4678C117.898 61.5895 118.128 62.5614 118.586 63.3999C119.045 64.233 119.682 64.8783 120.494 65.3248C121.309 65.774 122.24 66 123.284 66H123.287C124.15 66 124.938 65.8393 125.635 65.5181C126.336 65.1968 126.916 64.7531 127.383 64.1895C127.847 63.6259 128.168 62.9861 128.349 62.281H124.871C124.552 62.9752 123.983 63.321 123.171 63.321C122.623 63.321 122.162 63.1468 121.787 62.7901C121.409 62.4389 121.196 61.927 121.144 61.2573H128.541C128.578 60.9252 128.597 60.6012 128.597 60.2935C128.597 59.2154 128.371 58.2707 127.917 57.4593C127.467 56.6508 126.838 56.0246 126.037 55.5862L126.042 55.589ZM121.169 59.4278C121.258 58.8342 121.49 58.3796 121.868 58.0583C122.243 57.737 122.704 57.5764 123.255 57.5764C123.805 57.5764 124.304 57.7452 124.685 58.0774C125.068 58.415 125.259 58.8642 125.259 59.4278H121.169Z" fill="black"></path><path d="M84.8141 51.9979H79.4066V54.078H84.8141V51.9979Z" fill="black"></path><path d="M76.0715 52.8337H74.0099V57.4539H76.0715V52.8337Z" fill="black"></path><path d="M140.227 21.2903C139.655 21.2903 139.186 21.4619 138.824 21.8022C138.46 22.1452 138.279 22.5699 138.279 23.0845C138.279 23.5991 138.457 24.0074 138.824 24.3505C139.186 24.6908 139.655 24.8623 140.227 24.8623C140.799 24.8623 141.252 24.6908 141.614 24.3505C141.978 24.0074 142.159 23.5882 142.159 23.0845C142.159 22.5808 141.981 22.1452 141.614 21.8022C141.252 21.4619 140.791 21.2903 140.227 21.2903Z" fill="black"></path><path d="M151.943 26.4958C151.104 26.0466 150.16 25.8206 149.115 25.8206C148.071 25.8206 147.129 26.0466 146.285 26.4958C145.446 26.945 144.782 27.593 144.299 28.4343C143.816 29.2755 143.573 30.2502 143.573 31.3556C143.573 32.4609 143.813 33.4492 144.291 34.285C144.768 35.1236 145.427 35.7634 146.258 36.2126C147.092 36.6618 148.031 36.8878 149.075 36.8878C150.119 36.8878 151.066 36.6618 151.914 36.2126C152.758 35.7634 153.43 35.1181 153.918 34.2741C154.41 33.4329 154.655 32.4582 154.655 31.3556C154.655 30.2529 154.412 29.2755 153.929 28.4343C153.446 27.593 152.782 26.945 151.943 26.4958ZM150.365 33.6125C150.346 33.6289 150.322 33.6371 150.303 33.6534C150.324 33.6398 150.346 33.6289 150.365 33.6125C149.99 33.893 149.561 34.0345 149.075 34.0345C148.535 34.0345 148.074 33.8603 147.691 33.5145C147.785 33.6017 147.888 33.6779 147.993 33.7432C147.888 33.6779 147.785 33.6017 147.691 33.5173C147.631 33.4628 147.575 33.4056 147.518 33.3457C147.513 33.3403 147.51 33.3348 147.505 33.3294C147.337 33.1388 147.205 32.9129 147.108 32.6569C147.183 32.8584 147.289 33.0326 147.407 33.196C147.289 33.0354 147.183 32.8611 147.108 32.6569C147.073 32.5644 147.043 32.4691 147.016 32.3711C146.992 32.2703 146.97 32.1669 146.951 32.0607C146.946 32.0062 146.935 31.9491 146.93 31.8946C146.924 31.8374 146.922 31.7803 146.914 31.7231C146.911 31.6904 146.911 31.6632 146.908 31.6305C146.905 31.5706 146.905 31.5107 146.903 31.4454V31.361C146.903 31.1432 146.916 30.9363 146.941 30.7457C146.949 30.694 146.957 30.6477 146.965 30.6041C146.965 30.5796 146.97 30.5524 146.978 30.5279C146.981 30.5088 146.986 30.4871 146.992 30.468C147.011 30.3754 147.032 30.291 147.062 30.2066C147.065 30.2012 147.065 30.1903 147.067 30.1849C147.089 30.1222 147.111 30.0623 147.138 29.9997C147.138 29.9997 147.138 29.9979 147.14 29.9943V29.9916C147.143 29.9834 147.146 29.9752 147.148 29.9698C147.148 29.9698 147.148 29.9689 147.148 29.9671C147.173 29.9044 147.205 29.8391 147.237 29.7819C147.243 29.7683 147.251 29.7601 147.256 29.7465C147.297 29.673 147.34 29.6104 147.386 29.5478C147.432 29.4824 147.483 29.4253 147.534 29.3681C147.588 29.3109 147.642 29.2565 147.699 29.2075C147.799 29.1176 147.907 29.0387 148.02 28.9733C148.02 28.9733 148.022 28.9724 148.025 28.9706C148.047 28.9543 148.068 28.9434 148.095 28.9325C148.095 28.9325 148.098 28.9298 148.101 28.9298C148.101 28.9298 148.101 28.927 148.104 28.927C148.141 28.908 148.179 28.8889 148.217 28.8726C148.236 28.8644 148.255 28.8535 148.276 28.8481C148.276 28.8481 148.276 28.8454 148.279 28.8454C148.322 28.8263 148.371 28.81 148.417 28.7936C148.419 28.7909 148.422 28.7909 148.425 28.7909C148.444 28.7828 148.465 28.7773 148.487 28.7719C148.524 28.7582 148.56 28.7501 148.597 28.7446C148.614 28.7419 148.624 28.7392 148.641 28.7365C148.657 28.7337 148.673 28.731 148.686 28.7283C148.743 28.7201 148.802 28.7092 148.862 28.7038C148.878 28.7038 148.894 28.7011 148.908 28.7011C148.972 28.6956 149.043 28.6929 149.113 28.6929C149.183 28.6929 149.25 28.6956 149.318 28.7011C149.339 28.7011 149.358 28.7038 149.38 28.7065C149.399 28.7065 149.415 28.7092 149.434 28.712H149.437C149.48 28.7174 149.526 28.7256 149.569 28.7337C149.628 28.7474 149.685 28.7582 149.741 28.7773C149.755 28.78 149.763 28.7828 149.777 28.7855C149.83 28.8018 149.884 28.8209 149.936 28.8454C149.944 28.8481 149.952 28.8508 149.957 28.8535C149.963 28.8535 149.965 28.8563 149.974 28.859C150.009 28.8726 150.038 28.8862 150.071 28.9053C150.103 28.9189 150.133 28.9325 150.165 28.9515C150.168 28.9515 150.168 28.9543 150.168 28.9543C150.289 29.0251 150.411 29.1095 150.524 29.2102H150.527C150.581 29.2619 150.635 29.3136 150.686 29.3708H150.689C150.743 29.4307 150.791 29.4933 150.84 29.5614C150.921 29.673 150.991 29.7928 151.053 29.9262C151.08 29.9861 151.107 30.0487 151.131 30.1168C151.134 30.1195 151.134 30.1222 151.134 30.1304C151.158 30.2012 151.185 30.272 151.204 30.3455C151.234 30.4544 151.258 30.5687 151.277 30.6858C151.285 30.7321 151.293 30.7757 151.298 30.8247C151.293 30.7893 151.288 30.7539 151.282 30.7158C151.301 30.8328 151.315 30.9553 151.32 31.0833C151.323 31.1731 151.325 31.263 151.325 31.3556C151.325 32.2186 151.104 32.8802 150.664 33.3403C150.618 33.3947 150.567 33.441 150.516 33.4873C150.465 33.5309 150.413 33.5717 150.359 33.6153L150.365 33.6125Z" fill="black"></path><path d="M162.893 25.8615C162.192 25.8615 161.563 25.9976 161.004 26.2726C160.44 26.5475 159.998 26.926 159.666 27.4024V25.9758H156.398V36.7326H159.666V30.8927C159.666 30.1712 159.852 29.6131 160.219 29.2156C160.591 28.8181 161.088 28.6194 161.709 28.6194C162.329 28.6194 162.831 28.8181 163.203 29.2156C163.57 29.6158 163.757 30.174 163.757 30.8927V36.7326H167.003V30.4299C167.003 29.0142 166.628 27.8952 165.886 27.0866C165.141 26.2671 164.142 25.8615 162.896 25.8615H162.893Z" fill="black"></path><path d="M76.0067 49.9315C76.8837 49.9315 77.6797 49.7028 78.392 49.2455C79.1071 48.7881 79.6684 48.1401 80.0839 47.2988C80.4994 46.4576 80.7072 45.4829 80.7072 44.3775C80.7072 43.2722 80.4994 42.303 80.0839 41.4671C79.6684 40.6286 79.1071 39.9888 78.392 39.5396C77.677 39.0904 76.8837 38.8644 76.0067 38.8644C75.2539 38.8644 74.5982 39.0196 74.0396 39.3272C73.4757 39.6349 73.0385 40.0405 72.7201 40.5415V39.0196H69.4525V51.8782H72.7201V48.2735C73.0412 48.7608 73.4811 49.1611 74.0504 49.4687C74.6171 49.7764 75.2701 49.9315 76.0094 49.9315H76.0067ZM73.7941 46.6917C73.7941 46.6917 73.786 46.689 73.7806 46.6835C73.7752 46.6835 73.7725 46.6808 73.7644 46.6754C73.7563 46.6726 73.7455 46.6672 73.7374 46.6563H73.7347C73.6726 46.6127 73.6133 46.5637 73.5512 46.5147C73.5242 46.4875 73.4919 46.4603 73.4622 46.4331C73.4325 46.4058 73.4055 46.3759 73.3785 46.3487C73.3165 46.286 73.2625 46.218 73.2085 46.1499C73.16 46.0846 73.1222 46.0138 73.0817 45.943C73.0493 45.8913 73.0143 45.8423 72.9846 45.7878C72.793 45.4012 72.6986 44.9384 72.6986 44.4075C72.6986 44.0508 72.7471 43.7296 72.8308 43.4383C72.8901 43.2368 72.963 43.0462 73.0628 42.8747C72.9954 42.989 72.9387 43.1116 72.8901 43.2422C72.9387 43.1143 72.9954 42.989 73.0601 42.8747C73.106 42.7985 73.1546 42.725 73.2058 42.6596C73.2328 42.6215 73.2598 42.5888 73.2868 42.5589C73.3192 42.5235 73.3461 42.4935 73.3758 42.4609C73.4217 42.4146 73.4703 42.3656 73.5161 42.3247C73.5431 42.2975 73.5728 42.273 73.5998 42.2512C73.6052 42.2458 73.6133 42.2376 73.6187 42.2349C73.6349 42.2186 73.6538 42.2022 73.6726 42.1941C73.6753 42.1913 73.678 42.1886 73.6807 42.1886C73.6861 42.1832 73.6942 42.175 73.6996 42.175C73.7077 42.1668 73.7185 42.1559 73.732 42.1505C73.7374 42.1451 73.7455 42.1423 73.7509 42.1369C73.8076 42.096 73.8642 42.0579 73.9236 42.0253C73.9883 41.9871 74.0558 41.9545 74.126 41.9245C74.4039 41.8075 74.7034 41.7476 75.0272 41.7476C75.4913 41.7476 75.8988 41.8646 76.2603 42.0933C76.3062 42.1205 76.3548 42.1532 76.398 42.1886C76.4196 42.2049 76.4438 42.224 76.4681 42.2431C76.4897 42.2594 76.5113 42.2785 76.5329 42.3002C76.5518 42.3138 76.5707 42.3329 76.5922 42.352C76.6165 42.3765 76.6462 42.3982 76.6705 42.4282C76.6786 42.4336 76.6867 42.4445 76.6948 42.4527C76.7461 42.5044 76.7919 42.5616 76.8405 42.6188C76.8432 42.6242 76.8486 42.6324 76.8567 42.6378C76.8621 42.646 76.8702 42.6596 76.8783 42.6705C76.9592 42.7821 77.0321 42.9019 77.0941 43.0299C77.1103 43.0653 77.1292 43.1034 77.1454 43.1442C77.1481 43.1497 77.1508 43.1606 77.1535 43.1687C77.1697 43.2014 77.1805 43.2313 77.1913 43.264C77.194 43.2722 77.1967 43.2804 77.1994 43.2885C77.2075 43.3103 77.2156 43.3294 77.221 43.3511C77.2264 43.3647 77.2291 43.3756 77.2345 43.3893C77.2264 43.3539 77.2129 43.3239 77.1994 43.2885C77.2156 43.3294 77.2318 43.3702 77.2398 43.4165C77.2452 43.4301 77.2479 43.441 77.2533 43.4546C77.256 43.46 77.256 43.4709 77.2587 43.4764C77.2722 43.5199 77.2803 43.5662 77.2911 43.6098C77.2938 43.6234 77.2965 43.637 77.2992 43.6533C77.3046 43.6778 77.3127 43.7051 77.3154 43.7323C77.3208 43.7595 77.3289 43.7922 77.3316 43.8249C77.3316 43.8303 77.3343 43.833 77.3343 43.8412V43.8548C77.3343 43.8548 77.337 43.8575 77.337 43.8603C77.337 43.8684 77.3397 43.8793 77.3397 43.8875V43.9011C77.3397 43.9011 77.3424 43.9038 77.3424 43.9065C77.3613 44.059 77.3694 44.2196 77.3694 44.3884C77.3694 45.2134 77.14 45.864 76.6813 46.3459C76.5653 46.4657 76.4465 46.5719 76.3197 46.6645C76.2657 46.7026 76.2091 46.7407 76.1524 46.7734C76.1443 46.7788 76.1335 46.787 76.1254 46.7897C76.1173 46.7952 76.1092 46.7979 76.1038 46.8033C76.0877 46.8115 76.0769 46.8197 76.0607 46.8251C76.0337 46.8414 76.0067 46.8523 75.9824 46.8632C75.9743 46.8687 75.9635 46.8768 75.9554 46.8768C75.9365 46.8904 75.9204 46.8959 75.9015 46.9013C75.8664 46.9177 75.8313 46.9286 75.7935 46.9395C75.7854 46.9449 75.7773 46.9476 75.7693 46.9476C75.7288 46.964 75.691 46.9748 75.6505 46.9857C75.6289 46.9939 75.6047 47.0021 75.5777 47.0048C75.5588 47.0102 75.5399 47.0184 75.5183 47.0211H75.5156C75.5156 47.0211 75.4994 47.0239 75.494 47.0266C75.4778 47.0293 75.467 47.032 75.4508 47.032C75.3915 47.0456 75.3321 47.0511 75.2674 47.0565H75.262C75.262 47.0565 75.2539 47.0592 75.2485 47.0565C75.2323 47.0592 75.2215 47.062 75.2053 47.0592C75.1459 47.0647 75.0866 47.0674 75.0272 47.0674H75.0245C74.9652 47.0674 74.9058 47.0647 74.8464 47.0592C74.8302 47.062 74.8194 47.0592 74.8032 47.0565C74.7952 47.0592 74.7871 47.0592 74.779 47.0565C74.7547 47.0538 74.7331 47.0538 74.7088 47.0484C74.6872 47.0484 74.6683 47.0456 74.6467 47.0402H74.6386C74.6386 47.0402 74.636 47.0402 74.6333 47.0375C74.6306 47.0402 74.6279 47.0402 74.6198 47.0375C74.6171 47.0375 74.6171 47.0347 74.6171 47.0347C74.6144 47.0375 74.6117 47.0375 74.609 47.0347C74.5739 47.032 74.5388 47.0266 74.5091 47.0157C74.4552 47.0075 74.4012 46.9912 74.3526 46.9748C74.3526 46.9748 74.3508 46.9739 74.3472 46.9721H74.3445C74.2717 46.9503 74.2042 46.9258 74.1341 46.8959C74.0639 46.8687 73.9964 46.8333 73.9317 46.7952C73.8858 46.7734 73.8399 46.7434 73.7968 46.7108L73.7941 46.6917Z" fill="black"></path><path d="M72.7174 52.8337H69.4498V65.8475H72.7174V52.8337Z" fill="black"></path><path d="M87.3154 38.8616C86.2712 38.8616 85.3295 39.0876 84.4876 39.5368C83.6484 39.986 82.9846 40.634 82.5016 41.4753C82.0186 42.3165 81.7758 43.2912 81.7758 44.3966C81.7758 45.5019 82.0159 46.4902 82.4935 47.326C82.9711 48.1646 83.6241 48.8044 84.4606 49.2536C85.2944 49.7028 86.2334 49.9288 87.2777 49.9288C88.3219 49.9288 89.269 49.7028 90.1163 49.2536C90.9609 48.8044 91.6328 48.1591 92.1212 47.3151C92.6123 46.4739 92.8578 45.4992 92.8578 44.3966C92.8578 43.2939 92.615 42.3165 92.132 41.4753C91.649 40.634 90.9852 39.986 90.146 39.5368C89.3041 39.0876 88.3624 38.8616 87.3154 38.8616ZM89.5335 44.3993C89.5335 44.4755 89.5308 44.549 89.5281 44.6225C89.5227 44.7505 89.5119 44.873 89.493 44.9901V44.9983H89.4903C89.4876 45.0364 89.4822 45.069 89.4741 45.099C89.4687 45.1425 89.4606 45.1834 89.4498 45.2269C89.4525 45.2297 89.4498 45.2324 89.4498 45.2324C89.4363 45.295 89.4228 45.3549 89.4039 45.4175C89.3878 45.4801 89.3689 45.5373 89.3473 45.5945C89.3257 45.6544 89.3041 45.7088 89.2825 45.7633C89.2582 45.8205 89.2313 45.8722 89.2043 45.9212C89.1611 46.0056 89.1098 46.09 89.0559 46.1662C89.0316 46.2043 88.9992 46.2425 88.9722 46.2806C88.9452 46.316 88.9129 46.3514 88.8805 46.384C88.9425 46.3187 89.0019 46.2425 89.0559 46.1662C88.9992 46.2425 88.9425 46.316 88.8778 46.3813C88.8427 46.4167 88.8076 46.4521 88.7752 46.4902C88.6646 46.5909 88.5486 46.6781 88.4326 46.7516C88.303 46.8333 88.1681 46.8959 88.0251 46.9476C87.793 47.032 87.5475 47.0783 87.2831 47.0783C86.7569 47.0783 86.3036 46.9095 85.9258 46.5801C85.8907 46.5474 85.8583 46.5174 85.826 46.4848C85.7909 46.4521 85.7612 46.4221 85.7288 46.3868C85.3133 45.9239 85.1055 45.2596 85.1055 44.402C85.1055 43.6424 85.262 43.0435 85.5777 42.6024C85.629 42.5316 85.6775 42.4663 85.7369 42.4064C85.7909 42.3492 85.8448 42.2948 85.9015 42.2458C86.0121 42.1477 86.1309 42.0606 86.255 41.9898C86.3818 41.9191 86.5167 41.8619 86.6544 41.8183C86.792 41.7775 86.9377 41.7475 87.0915 41.7339C87.167 41.7285 87.2453 41.7258 87.3235 41.7258C87.6338 41.7258 87.9199 41.7829 88.1843 41.9C88.2167 41.9136 88.2491 41.9272 88.2814 41.9463C88.3138 41.9599 88.3435 41.9735 88.3759 41.9926H88.3786C88.3948 42.0062 88.4137 42.0143 88.4299 42.028C88.4326 42.028 88.4326 42.0307 88.4326 42.0307C88.4353 42.028 88.4379 42.0334 88.4379 42.0334C88.4406 42.0334 88.4406 42.0361 88.4406 42.0361C88.4811 42.0579 88.5189 42.0824 88.5567 42.1124H88.5594C88.5594 42.1124 88.5837 42.1314 88.5944 42.1396C88.6295 42.1641 88.6646 42.194 88.697 42.2213C88.7051 42.2294 88.7186 42.2403 88.7321 42.2485C88.7321 42.2485 88.7321 42.2512 88.7348 42.2512C88.7887 42.2975 88.8427 42.3519 88.894 42.4091H88.8967C89.0046 42.5262 89.0936 42.6569 89.1773 42.7957C89.2555 42.9346 89.323 43.087 89.3743 43.2531C89.4822 43.5825 89.5335 43.9637 89.5335 44.3938V44.3993Z" fill="black"></path><path d="M105.13 49.7763V39.0195H101.859V44.8594C101.859 45.5809 101.676 46.1417 101.306 46.5365C100.934 46.9367 100.432 47.1354 99.7979 47.1354C99.1638 47.1354 98.6754 46.9367 98.3084 46.5365C97.9361 46.139 97.7553 45.5781 97.7553 44.8594V39.0195H94.5038V45.3032C94.5038 46.2424 94.6765 47.0565 95.0219 47.7535C95.3645 48.4477 95.8475 48.9786 96.4709 49.3434C97.0969 49.711 97.8173 49.8961 98.6322 49.8961C99.3203 49.8961 99.9463 49.7491 100.516 49.4605C101.082 49.1719 101.53 48.788 101.862 48.3116V49.7763H105.133H105.13Z" fill="black"></path><path d="M114.091 42.3928V38.9025C113.389 38.9025 112.753 39.0713 112.181 39.4143C111.609 39.7546 111.131 40.2202 110.748 40.811V39.0195H107.48V49.7763H110.748V44.7832C110.748 43.8983 110.953 43.2749 111.36 42.9237C111.765 42.567 112.38 42.3928 113.192 42.3928H114.091Z" fill="black"></path><path d="M84.9004 55.5917C84.0963 55.1534 83.1816 54.9355 82.1481 54.9355C81.1147 54.9355 80.1513 55.1615 79.3364 55.6107C78.5215 56.0572 77.8874 56.7025 77.4368 57.5356C76.9835 58.3741 76.7568 59.3515 76.7568 60.4678C76.7568 61.584 76.9862 62.5641 77.4449 63.3999C77.9009 64.233 78.5404 64.8783 79.3526 65.3275C80.1675 65.774 81.0985 66 82.1427 66H82.1454C83.0089 66 83.7941 65.8421 84.493 65.5181C85.1945 65.1968 85.7747 64.7531 86.2415 64.1895C86.7056 63.6259 87.0267 62.9861 87.2075 62.281H83.7293C83.4109 62.9752 82.8416 63.3237 82.0294 63.3237C81.4816 63.3237 81.0202 63.1468 80.6424 62.7901C80.2674 62.4389 80.0542 61.927 80.0029 61.2573H87.3991C87.4368 60.9252 87.4557 60.6039 87.4557 60.2935C87.4557 59.2154 87.2291 58.2707 86.7758 57.4593C86.3224 56.6508 85.6964 56.0246 84.895 55.5917H84.9004ZM80.0272 59.4278C80.0326 59.3951 80.0407 59.3651 80.0461 59.3325C80.0515 59.2998 80.0623 59.2698 80.0677 59.2399C80.0866 59.15 80.1082 59.0629 80.1379 58.9785C80.1379 58.9731 80.1406 58.9649 80.1433 58.9595C80.1513 58.9322 80.1621 58.9023 80.1702 58.8751C80.1891 58.8206 80.2107 58.7716 80.2323 58.7226C80.2512 58.6763 80.2728 58.63 80.2971 58.5865C80.3051 58.5674 80.3159 58.5511 80.3294 58.532C80.3456 58.5048 80.3618 58.4749 80.3807 58.4504C80.3861 58.4367 80.3969 58.4259 80.4023 58.415C80.4293 58.3714 80.4617 58.3333 80.494 58.2924C80.5291 58.2516 80.5669 58.2108 80.6047 58.1699C80.6424 58.1318 80.6829 58.0937 80.7234 58.0583C81.0985 57.737 81.5599 57.5764 82.1076 57.5764C82.5151 57.5764 82.874 57.6663 83.1843 57.8378C83.2463 57.8705 83.3111 57.9086 83.3705 57.9494C83.4082 57.9739 83.4433 58.0011 83.4784 58.0284H83.4811L83.4838 58.0311C83.4892 58.0338 83.4919 58.0365 83.5 58.0447C83.5162 58.0583 83.527 58.0692 83.5431 58.0828C83.5782 58.1155 83.6133 58.1454 83.643 58.1781C83.6673 58.2026 83.6943 58.2298 83.7158 58.2571C83.7374 58.2816 83.759 58.3088 83.7779 58.336C83.8184 58.3905 83.8562 58.4476 83.8912 58.5048C83.9155 58.5511 83.9425 58.6001 83.9641 58.6464C83.9857 58.7008 84.0073 58.758 84.0262 58.8179C84.0396 58.856 84.0477 58.8941 84.0585 58.9322C84.0585 58.935 84.0612 58.9377 84.0612 58.9404C84.0666 58.9568 84.0693 58.9676 84.0693 58.984C84.072 58.9867 84.072 58.9921 84.072 58.9976C84.0855 59.0548 84.0936 59.1119 84.099 59.1718C84.1044 59.2535 84.1125 59.3406 84.1125 59.4278H80.0245H80.0272Z" fill="black"></path><path d="M93.8265 57.748C94.6657 57.748 95.2324 58.1591 95.5265 58.9813H99.0046C98.724 57.6962 98.1331 56.6998 97.2372 55.9919C96.3387 55.2841 95.2189 54.9329 93.8832 54.9329C92.8389 54.9329 91.9107 55.1588 91.1039 55.6081C90.2917 56.0545 89.663 56.6998 89.2124 57.5329C88.7591 58.3714 88.5324 59.3488 88.5324 60.4651C88.5324 61.5813 88.7591 62.5614 89.2124 63.3973C89.6657 64.2304 90.2944 64.8756 91.1039 65.3248C91.9107 65.7713 92.8363 65.9973 93.8805 65.9973H93.8859C95.2108 65.9973 96.3225 65.6379 97.2291 64.9192C98.1304 64.1977 98.7267 63.2094 99.0046 61.9489H95.5265C95.2297 62.7711 94.6657 63.1822 93.8265 63.1822C93.2248 63.1822 92.7472 62.948 92.3937 62.477C92.0348 62.0088 91.8595 61.339 91.8595 60.4624C91.8595 59.5857 92.0348 58.9187 92.3937 58.4477C92.7499 57.9794 93.2275 57.7425 93.8265 57.7425V57.748Z" fill="black"></path><path d="M108.462 55.6107C107.623 55.1615 106.679 54.9355 105.634 54.9355C104.59 54.9355 103.648 55.1615 102.804 55.6107C101.965 56.0572 101.301 56.7052 100.818 57.5465C100.335 58.3905 100.092 59.3651 100.092 60.4678C100.092 61.5704 100.332 62.5641 100.81 63.3999C101.287 64.233 101.946 64.8783 102.777 65.3275C103.611 65.774 104.55 66 105.594 66C106.638 66 107.588 65.774 108.433 65.3275C109.277 64.8783 109.949 64.2303 110.437 63.3891C110.929 62.5478 111.174 61.5731 111.174 60.4678C111.174 59.3624 110.931 58.3905 110.448 57.5465C109.965 56.7052 109.304 56.0572 108.462 55.6107ZM107.742 59.5067C107.731 59.4686 107.723 59.4278 107.709 59.3896C107.723 59.4278 107.731 59.4659 107.742 59.5067ZM103.675 59.0493C103.657 59.0874 103.64 59.1283 103.627 59.1691C103.635 59.1446 103.646 59.1201 103.654 59.0929C103.662 59.0765 103.667 59.0629 103.675 59.0493ZM107.688 61.5895C107.674 61.633 107.661 61.6793 107.642 61.7201C107.637 61.7365 107.628 61.7528 107.623 61.7664C107.623 61.7719 107.62 61.7746 107.618 61.78C107.61 61.8154 107.593 61.8454 107.577 61.878C107.553 61.9352 107.523 61.9897 107.494 62.0387C107.453 62.1095 107.413 62.1748 107.364 62.2374C107.405 62.1802 107.442 62.1231 107.48 62.0632C107.464 62.085 107.453 62.1067 107.437 62.1285C107.415 62.1666 107.391 62.202 107.364 62.2374C107.318 62.3028 107.27 62.3654 107.216 62.4226C107.21 62.4307 107.199 62.4416 107.191 62.4498C107.073 62.5777 106.949 62.6812 106.816 62.771C106.457 63.0188 106.053 63.1468 105.597 63.1468C104.973 63.1468 104.455 62.9153 104.04 62.4525C103.983 62.3899 103.926 62.3191 103.881 62.2483C103.783 62.1013 103.702 61.9434 103.632 61.7691C103.597 61.6793 103.57 61.5922 103.543 61.4969C103.524 61.4207 103.505 61.3417 103.489 61.2627C103.457 61.1021 103.438 60.9306 103.427 60.7455C103.424 60.6556 103.422 60.5603 103.422 60.465C103.422 60.3698 103.424 60.2772 103.427 60.1846C103.435 60.0267 103.451 59.8742 103.478 59.73C103.454 59.8634 103.438 60.0022 103.427 60.1519C103.43 60.0812 103.435 60.0158 103.446 59.9532C103.449 59.9341 103.449 59.9178 103.451 59.9015C103.457 59.8443 103.468 59.7871 103.476 59.73C103.476 59.7109 103.478 59.6918 103.484 59.6728C103.497 59.5993 103.511 59.5258 103.53 59.4604C103.532 59.4468 103.532 59.4386 103.538 59.425C103.543 59.4032 103.551 59.3842 103.557 59.3624C103.562 59.3379 103.573 59.308 103.581 59.2835C103.576 59.2862 103.576 59.2916 103.576 59.2971C103.576 59.2971 103.576 59.2943 103.578 59.2916C103.578 59.2916 103.579 59.2898 103.581 59.2862C103.586 59.2644 103.594 59.2453 103.603 59.2236C103.624 59.1528 103.654 59.0847 103.684 59.0194C103.711 58.954 103.743 58.8887 103.778 58.8288C103.813 58.7689 103.851 58.709 103.891 58.6545C103.894 58.6491 103.899 58.6437 103.902 58.6409C103.899 58.6464 103.894 58.6518 103.891 58.6545C103.897 58.6464 103.905 58.6382 103.91 58.63C103.951 58.5756 103.994 58.5184 104.042 58.4694C104.358 58.1264 104.733 57.914 105.17 57.8269C105.316 57.7997 105.467 57.7833 105.626 57.7833C106.25 57.7833 106.776 58.0147 107.202 58.4776C106.989 58.2462 106.752 58.0719 106.487 57.9576C106.752 58.0746 106.989 58.2462 107.202 58.4803C107.31 58.5947 107.399 58.7253 107.483 58.8642C107.523 58.935 107.561 59.0112 107.593 59.0874C107.612 59.1337 107.631 59.1827 107.65 59.229C107.658 59.2508 107.669 59.2726 107.674 59.2943C107.65 59.2208 107.62 59.1528 107.593 59.0847C107.626 59.1609 107.655 59.2399 107.682 59.3216C107.723 59.4414 107.753 59.5693 107.777 59.7027C107.788 59.7545 107.798 59.8035 107.804 59.8552C107.798 59.8116 107.788 59.7708 107.78 59.7272C107.804 59.8606 107.82 60.0022 107.831 60.1492C107.836 60.25 107.839 60.3561 107.839 60.4623C107.839 60.6665 107.825 60.8598 107.801 61.0395C107.801 61.0449 107.801 61.0531 107.798 61.0586C107.785 61.1538 107.772 61.2437 107.747 61.3308C107.734 61.388 107.723 61.4452 107.704 61.4996C107.699 61.5268 107.688 61.5568 107.68 61.584L107.688 61.5895ZM107.788 61.1865C107.785 61.2083 107.782 61.2274 107.774 61.2464C107.782 61.211 107.79 61.1729 107.796 61.1348C107.793 61.1511 107.79 61.1702 107.788 61.1865Z" fill="black"></path></g><defs><clipPath id="clip0_620_421"><rect width="167" height="66" fill="white"></rect></clipPath></defs></svg>